<?xml version="1.0" encoding="UTF-8"?>
<svg id="Layer_2" data-name="Layer 2" xmlns="http://www.w3.org/2000/svg" viewBox="0 0 34.36 48.91">
  <defs>
    <style>
      .cls-1 {
        fill: #fff;
      }

      .cls-2 {
        fill: #f20;
      }
    </style>
  </defs>
  <g id="Layer_1-2" data-name="Layer 1">
    <rect class="cls-2" x="1.53" y="47.45" width="31.31" height="1.46"/>
    <g>
      <path class="cls-1" d="M12.63,35l-1.24-1.23,.09-.09c.29-.31,.82-.89,1.97-.89h10.47c.86-.41,4.4-3.84,5.2-4.74,.44-.49,2.3-3.28,3.16-4.92-.36-.16-.92-.27-1.59-.11-.89,.21-1.47,.82-2.29,2.42l-.13,.25-3.38,1.75-.81-1.55,2.89-1.5c.87-1.63,1.75-2.71,3.32-3.08,1.76-.4,3.19,.26,3.77,1.05l.3,.4-.2,.46c-.7,1.65-3.17,5.35-3.74,5.99-.05,.05-4.98,5.32-6.4,5.32H13.45c-.39,0-.48,.1-.69,.33l-.13,.14Z"/>
      <path class="cls-1" d="M22.59,30.22h-6.47v-1.75h6.47c.44,0,.79-.11,1.02-.32,.17-.16,.26-.37,.26-.6,0-.43-.34-.92-1.28-.92h-4.31c-.56,0-1.03-.36-1.57-.78-.3-.23-.86-.66-1.1-.66h-3.59c-.64,0-1.65,.62-2.28,1.2-1.06,1.06-2.92,2.82-2.92,2.82l-1.2-1.27s1.84-1.74,2.91-2.81c.32-.3,1.9-1.69,3.49-1.69h3.59c.82,0,1.56,.57,2.16,1.02,.18,.14,.46,.35,.59,.42h4.23c1.99,0,3.03,1.34,3.03,2.67,0,.7-.3,1.39-.81,1.87-.39,.36-1.09,.8-2.21,.8Z"/>
      <path class="cls-1" d="M9.14,39.92L0,30.79l4.83-4.83,9.14,9.14-4.83,4.83ZM2.47,30.79l6.67,6.67,2.36-2.36-6.67-6.67-2.36,2.36Z"/>
      <rect class="cls-1" x="4.67" y="30.49" width="1.75" height="2.03" transform="translate(-20.65 13.15) rotate(-45)"/>
      <path class="cls-1" d="M18.34,22.29c-6.14,0-11.14-5-11.14-11.14S12.2,0,18.34,0s11.14,5,11.14,11.14-5,11.14-11.14,11.14Zm0-20.54c-5.18,0-9.4,4.22-9.4,9.4s4.21,9.4,9.4,9.4,9.4-4.22,9.4-9.4S23.52,1.75,18.34,1.75Z"/>
      <path class="cls-1" d="M19.11,15.96h-1.55c-1.37,0-2.49-1.12-2.49-2.49v-.77c0-.52,.42-.94,.94-.94s.94,.42,.94,.94v.77c0,.33,.27,.61,.61,.61h1.55c.33,0,.61-.27,.61-.61v-.43c0-.26-.17-.49-.42-.58l-2.53-.84c-1.02-.34-1.7-1.29-1.7-2.36v-.43c0-1.37,1.12-2.49,2.49-2.49h1.55c1.37,0,2.49,1.12,2.49,2.49v.78c0,.52-.42,.94-.94,.94s-.94-.42-.94-.94v-.78c0-.33-.27-.61-.61-.61h-1.55c-.33,0-.61,.27-.61,.61v.43c0,.26,.17,.49,.42,.58l2.53,.84c1.02,.34,1.7,1.29,1.7,2.36v.43c0,1.37-1.12,2.49-2.49,2.49Z"/>
      <path class="cls-1" d="M18.34,8.21c-.52,0-.94-.42-.94-.94v-2.32c0-.52,.42-.94,.94-.94s.94,.42,.94,.94v2.32c0,.52-.42,.94-.94,.94Z"/>
      <path class="cls-1" d="M18.34,18.29c-.52,0-.94-.42-.94-.94v-2.32c0-.52,.42-.94,.94-.94s.94,.42,.94,.94v2.32c0,.52-.42,.94-.94,.94Z"/>
    </g>
  </g>
</svg>