<?xml version="1.0" encoding="UTF-8"?>
<svg id="Layer_2" data-name="Layer 2" xmlns="http://www.w3.org/2000/svg" viewBox="0 0 46.17 48.46">
  <defs>
    <style>
      .cls-1 {
        fill: #fff;
      }

      .cls-2 {
        fill: #f20;
      }
    </style>
  </defs>
  <g id="Layer_1-2" data-name="Layer 1">
    <rect class="cls-2" x="7.43" y="47" width="31.31" height="1.46"/>
    <g>
      <g>
        <path class="cls-1" d="M7.68,39.01c-.12,0-.24-.03-.35-.09L.35,34.89c-.22-.13-.35-.36-.35-.61v-8.05c0-.25,.13-.48,.35-.61l6.97-4.03c.22-.13,.49-.13,.7,0l6.97,4.03c.22,.13,.35,.36,.35,.61v8.05c0,.25-.13,.48-.35,.61l-6.97,4.03c-.11,.06-.23,.09-.35,.09Zm-6.27-5.14l6.27,3.62,6.27-3.62v-7.24l-6.27-3.62-6.27,3.62v7.24Z"/>
        <rect class="cls-1" x="6.97" y="30.26" width="1.41" height="6.28"/>
        <rect class="cls-1" x="4.41" y="25.82" width="1.41" height="5.92" transform="translate(-22.37 18.82) rotate(-60.01)"/>
        <rect class="cls-1" x="7.28" y="28.08" width="5.91" height="1.41" transform="translate(-13.02 8.97) rotate(-29.99)"/>
      </g>
      <g>
        <path class="cls-1" d="M38.49,39.01c-.12,0-.24-.03-.35-.09l-6.97-4.03c-.22-.13-.35-.36-.35-.61v-8.05c0-.25,.13-.48,.35-.61l6.97-4.03c.22-.13,.49-.13,.7,0l6.97,4.03c.22,.13,.35,.36,.35,.61v8.05c0,.25-.13,.48-.35,.61l-6.97,4.03c-.11,.06-.23,.09-.35,.09Zm-6.27-5.14l6.27,3.62,6.27-3.62v-7.24l-6.27-3.62-6.27,3.62v7.24Z"/>
        <rect class="cls-1" x="37.79" y="30.26" width="1.41" height="6.28"/>
        <rect class="cls-1" x="35.23" y="25.82" width="1.41" height="5.92" transform="translate(-6.96 45.51) rotate(-60)"/>
        <rect class="cls-1" x="38.1" y="28.08" width="5.92" height="1.41" transform="translate(-8.89 24.38) rotate(-29.99)"/>
      </g>
      <g>
        <path class="cls-1" d="M22.98,17.51c-.12,0-.24-.03-.35-.09l-6.97-4.03c-.22-.13-.35-.36-.35-.61V4.73c0-.25,.13-.48,.35-.61L22.63,.09c.22-.13,.49-.13,.7,0l6.97,4.03c.22,.13,.35,.36,.35,.61V12.78c0,.25-.13,.48-.35,.61l-6.97,4.03c-.11,.06-.23,.09-.35,.09Zm-6.27-5.14l6.27,3.62,6.27-3.62V5.14l-6.27-3.62-6.27,3.62v7.24Z"/>
        <rect class="cls-1" x="22.28" y="8.76" width="1.41" height="6.28"/>
        <rect class="cls-1" x="19.72" y="4.32" width="1.41" height="5.92" transform="translate(3.91 21.32) rotate(-60)"/>
        <rect class="cls-1" x="22.58" y="6.57" width="5.92" height="1.41" transform="translate(-.22 13.74) rotate(-29.99)"/>
      </g>
      <g>
        <path class="cls-1" d="M7.68,19.38c-.19,0-.36-.07-.5-.21-.13-.13-.21-.31-.21-.5,0-.05,0-.09,.01-.14,.01-.05,.02-.09,.04-.13,.02-.05,.04-.08,.06-.12,.02-.04,.06-.07,.09-.11,.03-.04,.07-.06,.11-.09,.04-.02,.08-.05,.12-.07,.04-.02,.08-.03,.13-.04,.09-.02,.19-.02,.27,0,.05,.01,.09,.02,.13,.04,.04,.02,.08,.04,.12,.07,.04,.02,.07,.05,.11,.09,.03,.03,.06,.07,.09,.11,.02,.04,.05,.08,.06,.12,.02,.04,.03,.08,.04,.13,.01,.05,.01,.09,.01,.14,0,.19-.07,.37-.2,.5-.04,.04-.07,.06-.11,.09-.04,.03-.08,.05-.12,.07-.04,.02-.09,.03-.13,.04-.05,.01-.09,.01-.14,.01Z"/>
        <path class="cls-1" d="M6.97,13.71c0-.39,.32-.7,.7-.7h0c.39,0,.7,.32,.7,.7h0c0,.39-.31,.7-.7,.7h0c-.39,0-.7-.32-.7-.7Z"/>
        <path class="cls-1" d="M7.68,9.46s-.09,0-.14-.01c-.05,0-.09-.02-.13-.04-.04-.02-.08-.04-.12-.07-.04-.02-.07-.05-.11-.09-.13-.13-.21-.31-.21-.5,0-.05,0-.09,.01-.14,.01-.05,.02-.09,.04-.13,.02-.04,.04-.08,.06-.12,.02-.04,.06-.07,.09-.11,.03-.04,.07-.06,.11-.09,.04-.02,.08-.05,.12-.07,.04-.02,.08-.03,.13-.04,.09-.02,.19-.02,.27,0,.05,0,.09,.02,.13,.04,.04,.02,.08,.04,.12,.07,.04,.02,.07,.05,.11,.09,.03,.03,.06,.07,.09,.11,.02,.04,.05,.08,.06,.12,.02,.05,.03,.09,.04,.13,.01,.05,.01,.09,.01,.14,0,.19-.07,.37-.2,.5-.07,.07-.14,.12-.23,.16-.08,.04-.18,.05-.27,.05Z"/>
        <path class="cls-1" d="M10.27,8.76c0-.39,.31-.7,.7-.7h0c.39,0,.7,.31,.7,.7h0c0,.39-.32,.7-.7,.7h0c-.39,0-.7-.31-.7-.7Z"/>
        <path class="cls-1" d="M14.28,9.46s-.09,0-.14-.01c-.05,0-.09-.02-.13-.04-.04-.02-.08-.04-.12-.07-.04-.02-.08-.05-.11-.09-.13-.13-.2-.31-.2-.5,0-.05,0-.09,.01-.14,.01-.05,.02-.09,.04-.13,.02-.04,.04-.08,.06-.12,.02-.04,.06-.07,.09-.11,.03-.04,.07-.06,.11-.09,.04-.02,.08-.05,.12-.07,.04-.02,.09-.03,.13-.04,.09-.02,.19-.02,.28,0,.04,0,.09,.02,.13,.04,.04,.02,.08,.04,.12,.07,.04,.02,.08,.05,.11,.09,.03,.03,.06,.07,.09,.11,.02,.04,.05,.08,.06,.12,.02,.05,.03,.09,.04,.13,0,.05,.01,.09,.01,.14,0,.19-.07,.37-.2,.5-.04,.04-.07,.06-.11,.09-.04,.03-.08,.05-.12,.07-.04,.02-.09,.03-.13,.04-.05,.01-.09,.01-.14,.01Z"/>
      </g>
      <g>
        <path class="cls-1" d="M38.2,19.38s-.09,0-.14-.01c-.05,0-.09-.02-.13-.04-.04-.02-.08-.04-.12-.07-.04-.02-.07-.05-.11-.09-.13-.13-.21-.31-.21-.5,0-.05,0-.09,.01-.14,.01-.05,.02-.09,.04-.13,.01-.05,.04-.08,.06-.12,.02-.04,.06-.07,.09-.11,.03-.04,.07-.06,.11-.09,.04-.02,.08-.05,.12-.07,.04-.02,.08-.03,.13-.04,.23-.05,.47,.03,.64,.19,.03,.03,.06,.07,.08,.11,.03,.04,.05,.08,.07,.12,.02,.04,.03,.08,.04,.13,.01,.05,.01,.09,.01,.14,0,.19-.07,.37-.2,.5-.07,.07-.14,.12-.23,.16-.08,.04-.18,.05-.27,.05Z"/>
        <path class="cls-1" d="M37.49,13.71c0-.39,.32-.7,.7-.7h0c.39,0,.7,.32,.7,.7h0c0,.39-.31,.7-.7,.7h0c-.39,0-.7-.32-.7-.7Z"/>
        <path class="cls-1" d="M38.2,9.46s-.09,0-.14-.01c-.05,0-.09-.02-.13-.04-.04-.02-.08-.04-.12-.07-.04-.02-.07-.05-.11-.09-.13-.13-.21-.31-.21-.5,0-.05,0-.09,.01-.14,.01-.05,.02-.09,.04-.13,.02-.04,.04-.08,.07-.12,.02-.04,.06-.07,.09-.11,.17-.17,.4-.24,.63-.19,.05,0,.09,.02,.13,.04,.04,.02,.08,.04,.12,.07,.04,.02,.07,.05,.11,.09,.03,.03,.06,.07,.08,.11,.03,.04,.05,.08,.07,.12,.02,.05,.03,.09,.04,.13,.01,.05,.01,.09,.01,.14,0,.19-.07,.37-.2,.5-.07,.07-.14,.12-.23,.16-.08,.04-.18,.05-.27,.05Z"/>
        <path class="cls-1" d="M34.19,8.76c0-.39,.32-.7,.71-.7h0c.39,0,.7,.31,.7,.7h0c0,.39-.31,.7-.7,.7h0c-.39,0-.71-.31-.71-.7Z"/>
        <path class="cls-1" d="M31.59,9.46c-.1,0-.19-.02-.27-.05-.08-.04-.16-.09-.23-.16-.13-.13-.21-.31-.21-.5,0-.05,0-.09,.01-.14,0-.05,.02-.09,.04-.13,.02-.04,.04-.08,.07-.12,.02-.04,.05-.07,.09-.11,.03-.04,.07-.06,.11-.09,.04-.02,.08-.05,.12-.07,.04-.02,.09-.03,.13-.04,.09-.02,.18-.02,.27,0,.05,0,.09,.02,.13,.04,.04,.02,.08,.04,.12,.07,.04,.02,.07,.05,.11,.09,.04,.03,.06,.07,.09,.11,.02,.04,.05,.08,.07,.12,.02,.05,.03,.09,.04,.13,.01,.05,.01,.09,.01,.14,0,.19-.07,.37-.21,.5-.07,.07-.14,.12-.23,.16-.08,.04-.17,.05-.27,.05Z"/>
      </g>
    </g>
  </g>
</svg>