<?xml version="1.0" encoding="UTF-8"?>
<svg id="Layer_2" data-name="Layer 2" xmlns="http://www.w3.org/2000/svg" viewBox="0 0 50.29 47.08">
  <defs>
    <style>
      .cls-1 {
        fill: #fff;
      }

      .cls-2 {
        fill: #f20;
      }
    </style>
  </defs>
  <g id="Layer_1-2" data-name="Layer 1">
    <rect class="cls-2" y="45.62" width="50.29" height="1.46"/>
    <g>
      <path class="cls-1" d="M41.36,25.04h-1.95v-8.82c0-2.08-2.86-3.84-6.24-3.84v-1.95c4.59,0,8.19,2.54,8.19,5.79v8.82Z"/>
      <path class="cls-1" d="M33.17,9.97c-2.42,0-4.18-1.76-4.18-4.18v-1.6c0-2.42,1.76-4.18,4.18-4.18s4.18,1.76,4.18,4.18v1.6c0,2.42-1.76,4.18-4.18,4.18Zm0-8.02c-1.34,0-2.23,.9-2.23,2.23v1.6c0,1.34,.9,2.23,2.23,2.23s2.23-.9,2.23-2.23v-1.6c0-1.34-.9-2.23-2.23-2.23Z"/>
      <rect class="cls-1" x="36.2" y="17.02" width="1.95" height="8.02"/>
      <path class="cls-1" d="M27.54,14.58l-1.53-1.21c1.43-1.82,4.17-2.95,7.16-2.95v1.95c-2.36,0-4.57,.86-5.63,2.2Z"/>
      <rect class="cls-1" x="28.18" y="24.24" width="1.95" height="12.03"/>
      <rect class="cls-1" x="36.2" y="31.46" width="1.95" height="4.81"/>
      <rect class="cls-1" x="31.39" y="25.04" width="1.95" height="11.23"/>
      <path class="cls-1" d="M44.57,32.43h-9.97v-8.37h9.97v8.37Zm-8.02-1.95h6.07v-4.47h-6.07v4.47Z"/>
      <path class="cls-1" d="M10.88,25.04h-1.95v-8.82c0-3.25,3.6-5.79,8.19-5.79v1.95c-3.38,0-6.24,1.76-6.24,3.84v8.82Z"/>
      <path class="cls-1" d="M17.12,9.97c-2.42,0-4.18-1.76-4.18-4.18v-1.6c0-2.42,1.76-4.18,4.18-4.18s4.18,1.76,4.18,4.18v1.6c0,2.42-1.76,4.18-4.18,4.18Zm0-8.02c-1.33,0-2.23,.9-2.23,2.23v1.6c0,1.34,.9,2.23,2.23,2.23s2.23-.9,2.23-2.23v-1.6c0-1.34-.9-2.23-2.23-2.23Z"/>
      <rect class="cls-1" x="12.14" y="17.02" width="1.95" height="8.02"/>
      <path class="cls-1" d="M22.75,14.58c-1.05-1.34-3.26-2.2-5.63-2.2v-1.95c2.98,0,5.73,1.13,7.16,2.95l-1.53,1.21Z"/>
      <rect class="cls-1" x="20.16" y="24.24" width="1.95" height="12.03"/>
      <rect class="cls-1" x="12.14" y="31.46" width="1.95" height="4.81"/>
      <rect class="cls-1" x="16.95" y="25.04" width="1.95" height="11.23"/>
      <path class="cls-1" d="M15.69,32.43H5.72v-8.37H15.69v8.37Zm-8.02-1.95h6.07v-4.47H7.67v4.47Z"/>
      <polygon class="cls-1" points="18.84 23.32 14.94 19.42 18.84 15.53 20.22 16.91 17.7 19.42 20.22 21.94 18.84 23.32"/>
      <rect class="cls-1" x="16.32" y="18.45" width="6.42" height="1.95"/>
      <polygon class="cls-1" points="31.45 23.32 30.07 21.94 32.59 19.42 30.07 16.91 31.45 15.53 35.35 19.42 31.45 23.32"/>
      <rect class="cls-1" x="27.55" y="18.45" width="6.42" height="1.95"/>
      <rect class="cls-1" x="24.34" y="18.45" width="1.6" height="1.95"/>
    </g>
  </g>
</svg>