<?xml version="1.0" encoding="UTF-8"?>
<svg id="Layer_2" data-name="Layer 2" xmlns="http://www.w3.org/2000/svg" viewBox="0 0 70.59 62.9">
  <defs>
    <style>
      .cls-1 {
        fill: #0d8376;
      }

      .cls-2 {
        fill: none;
        stroke: #04513f;
        stroke-miterlimit: 10;
        stroke-width: .75px;
      }
    </style>
  </defs>
  <g id="Layer_1-2" data-name="Layer 1">
    <g>
      <path class="cls-2" d="M11.23,45.74c-2.4-1.2-4.41-2.85-6.04-4.95-1.63-2.1-2.84-4.58-3.63-7.45-.79-2.87-1.19-6-1.19-9.38s.39-6.51,1.19-9.39c.79-2.87,2-5.35,3.63-7.45,1.63-2.1,3.64-3.75,6.04-4.94C13.63,.97,16.42,.38,19.59,.38s5.89,.6,8.29,1.8c2.4,1.19,4.41,2.85,6.04,4.94,1.63,2.1,2.85,4.59,3.66,7.45,.81,2.87,1.22,6,1.22,9.39s-.41,6.51-1.22,9.38c-.81,2.87-2.03,5.36-3.66,7.45-1.63,2.1-3.64,3.75-6.04,4.95-2.4,1.19-5.16,1.8-8.29,1.8s-5.96-.6-8.36-1.8Zm14.43-12.05c1.39-2.25,2.09-5.49,2.09-9.73s-.7-7.49-2.09-9.74c-1.39-2.25-3.42-3.37-6.07-3.37s-4.69,1.12-6.1,3.37c-1.42,2.25-2.12,5.49-2.12,9.74s.71,7.49,2.12,9.73c1.41,2.25,3.45,3.38,6.1,3.38s4.68-1.13,6.07-3.38Z"/>
      <path class="cls-2" d="M42.12,15.67V5.77L62.88,1.15V46.84h-10.67V13.42l-10.09,2.25Z"/>
    </g>
    <rect class="cls-1" x=".38" y="58.75" width="70.21" height="4.16"/>
  </g>
</svg>