<?xml version="1.0" encoding="UTF-8"?>
<svg id="Layer_2" data-name="Layer 2" xmlns="http://www.w3.org/2000/svg" viewBox="0 0 69.88 60.33">
  <defs>
    <style>
      .cls-1 {
        fill: #fff;
      }

      .cls-2 {
        fill: none;
        stroke: #fff;
        stroke-miterlimit: 10;
        stroke-width: .75px;
      }
    </style>
  </defs>
  <g id="Layer_1-2" data-name="Layer 1">
    <g>
      <rect class="cls-1" x=".38" y="56.39" width="66.58" height="3.94"/>
      <g>
        <path class="cls-2" d="M10.1,41.01c-2.15-1.07-3.95-2.55-5.41-4.43-1.46-1.88-2.54-4.1-3.25-6.68-.71-2.57-1.06-5.37-1.06-8.4s.35-5.83,1.06-8.4c.71-2.57,1.79-4.8,3.25-6.68,1.46-1.88,3.26-3.36,5.41-4.43C12.25,.91,14.74,.38,17.58,.38s5.28,.54,7.43,1.61c2.15,1.07,3.95,2.55,5.41,4.43,1.46,1.88,2.55,4.11,3.28,6.68,.73,2.57,1.09,5.37,1.09,8.4s-.36,5.83-1.09,8.4c-.73,2.57-1.82,4.8-3.28,6.68-1.46,1.88-3.26,3.36-5.41,4.43-2.15,1.07-4.62,1.61-7.43,1.61s-5.33-.54-7.48-1.61Zm12.92-10.79c1.25-2.01,1.87-4.92,1.87-8.72s-.62-6.7-1.87-8.72c-1.25-2.02-3.06-3.02-5.44-3.02s-4.2,1.01-5.47,3.02c-1.27,2.01-1.9,4.92-1.9,8.72s.63,6.71,1.9,8.72,3.09,3.02,5.47,3.02,4.19-1.01,5.44-3.02Z"/>
        <path class="cls-2" d="M48.24,10.62c-1.36,.58-2.93,1.55-4.69,2.94l-4.38-8.46c2.15-1.61,4.46-2.8,6.94-3.57,2.47-.77,5.02-1.15,7.63-1.15,2.07,0,4.03,.24,5.87,.72,1.84,.48,3.46,1.22,4.86,2.22,1.4,1,2.52,2.27,3.37,3.83,.84,1.55,1.27,3.37,1.27,5.44s-.37,3.89-1.12,5.7c-.75,1.8-1.82,3.59-3.22,5.35-1.4,1.76-3.12,3.52-5.15,5.27-2.03,1.75-3.72,3.12-5.06,4.12h14.96v8.98h-30.22v-8.35l7.48-5.47c2.34-1.76,4.43-3.48,6.27-5.15,1.84-1.67,3.31-3.25,4.4-4.75,1.09-1.5,1.64-2.86,1.64-4.09,0-.73-.16-1.37-.49-1.93s-.77-1.02-1.32-1.38-1.23-.64-2.01-.84c-.79-.19-1.62-.29-2.5-.29-1.65,0-3.16,.29-4.52,.86Z"/>
      </g>
    </g>
  </g>
</svg>