<?xml version="1.0" encoding="UTF-8"?>
<svg id="Layer_2" data-name="Layer 2" xmlns="http://www.w3.org/2000/svg" viewBox="0 0 71.28 60.7">
  <defs>
    <style>
      .cls-1 {
        fill: #0d8376;
      }

      .cls-2 {
        fill: none;
        stroke: #04513f;
        stroke-miterlimit: 10;
        stroke-width: .75px;
      }
    </style>
  </defs>
  <g id="Layer_1-2" data-name="Layer 1">
    <g>
      <path class="cls-2" d="M10.3,41.85c-2.19-1.1-4.03-2.6-5.52-4.52-1.49-1.92-2.6-4.19-3.32-6.81-.72-2.62-1.08-5.49-1.08-8.58s.36-5.95,1.08-8.58c.72-2.62,1.83-4.9,3.32-6.81,1.49-1.92,3.33-3.43,5.52-4.52C12.49,.92,15.04,.38,17.94,.38s5.39,.55,7.58,1.64c2.19,1.1,4.03,2.6,5.52,4.52,1.49,1.92,2.6,4.19,3.35,6.81s1.12,5.49,1.12,8.58-.37,5.96-1.12,8.58-1.86,4.9-3.35,6.81c-1.49,1.92-3.33,3.43-5.52,4.52-2.19,1.1-4.72,1.65-7.58,1.65s-5.45-.55-7.64-1.65Zm13.19-11.01c1.27-2.05,1.91-5.02,1.91-8.9s-.64-6.84-1.91-8.9c-1.27-2.06-3.12-3.09-5.55-3.09s-4.29,1.03-5.58,3.09c-1.29,2.05-1.94,5.02-1.94,8.9s.65,6.85,1.94,8.9c1.29,2.06,3.15,3.08,5.58,3.08s4.28-1.03,5.55-3.08Z"/>
      <path class="cls-2" d="M49.88,43.2c-1.33-.2-2.64-.49-3.94-.88-1.29-.39-2.52-.85-3.7-1.38-1.18-.53-2.37-1.26-3.58-2.2l4.35-8.75c1.8,1.45,3.47,2.47,4.99,3.06,1.53,.59,3.13,.88,4.82,.88,1.1,0,2.15-.09,3.14-.26,1-.18,1.86-.45,2.58-.82,.73-.37,1.29-.81,1.67-1.32,.39-.51,.59-1.12,.59-1.82s-.19-1.28-.56-1.73-.92-.82-1.65-1.09-1.64-.47-2.76-.59c-1.12-.12-2.34-.18-3.67-.18h-2.11v-9.28h1.99c1.41,0,2.64-.05,3.67-.15,1.04-.1,1.86-.27,2.47-.5,.61-.24,1.03-.53,1.27-.88,.23-.35,.35-.84,.35-1.47,0-1.18-.62-2.11-1.85-2.82-1.23-.7-2.89-1.06-4.96-1.06-1.69,0-3.28,.29-4.79,.88-1.51,.59-3.16,1.59-4.96,3l-4.35-8.69c2.19-1.61,4.59-2.8,7.2-3.58,2.6-.78,5.2-1.18,7.78-1.18,2.31,0,4.44,.26,6.38,.79,1.94,.53,3.62,1.3,5.05,2.32,1.43,1.02,2.55,2.28,3.35,3.79,.8,1.51,1.2,3.2,1.2,5.08,0,1.1-.14,2.15-.41,3.14s-.66,1.91-1.14,2.73c-.49,.82-.96,1.45-1.41,1.88s-.83,.72-1.14,.88c.98,.35,2.09,1.38,3.32,3.08,1.23,1.71,1.85,3.93,1.85,6.67,0,2.03-.43,3.86-1.29,5.46-.86,1.61-2.05,2.95-3.58,4.02s-3.33,1.89-5.41,2.44c-2.07,.55-4.35,.82-6.81,.82-1.29,0-2.61-.1-3.94-.29Z"/>
    </g>
    <rect class="cls-1" x="3.55" y="56.9" width="64.19" height="3.8"/>
  </g>
</svg>