<?xml version="1.0" encoding="UTF-8"?>
<svg id="Layer_2" data-name="Layer 2" xmlns="http://www.w3.org/2000/svg" viewBox="0 0 89.28 70.68">
  <defs>
    <style>
      .cls-1 {
        fill: #fff;
      }

      .cls-2 {
        fill: none;
        stroke: #fff;
        stroke-miterlimit: 10;
        stroke-width: .75px;
      }
    </style>
  </defs>
  <g id="Layer_1-2" data-name="Layer 1">
    <g>
      <path class="cls-2" d="M21.82,50.67c-3.38,0-6.35-.64-8.91-1.92-2.56-1.28-4.71-3.04-6.44-5.28-1.74-2.24-3.03-4.89-3.87-7.95-.85-3.06-1.27-6.39-1.27-10s.42-6.94,1.27-10c.85-3.06,2.14-5.71,3.87-7.95,1.73-2.24,3.88-4,6.44-5.28,2.56-1.28,5.53-1.92,8.91-1.92s6.28,.64,8.84,1.92c2.56,1.28,4.71,3.04,6.44,5.28,1.73,2.24,3.04,4.89,3.91,7.95,.87,3.06,1.3,6.4,1.3,10s-.43,6.94-1.3,10c-.87,3.06-2.17,5.71-3.91,7.95-1.74,2.24-3.88,4-6.44,5.28-2.56,1.28-5.51,1.92-8.84,1.92Zm-6.51-14.77c1.51,2.4,3.68,3.6,6.51,3.6s4.99-1.2,6.48-3.6c1.48-2.4,2.23-5.86,2.23-10.38s-.74-7.98-2.23-10.38c-1.48-2.4-3.64-3.6-6.48-3.6s-5,1.2-6.51,3.6c-1.51,2.4-2.26,5.86-2.26,10.38s.76,7.98,2.26,10.38Z"/>
      <path class="cls-2" d="M70.54,39.3h-23.5v-10L68.35,1.95h13.57V28.61h6.99v10.69h-6.99v10.62h-11.38v-10.62Zm0-10.69V14.29l-11.03,14.32h11.03Z"/>
    </g>
    <rect class="cls-1" y="66.25" width="74.91" height="4.43"/>
  </g>
</svg>