<?xml version="1.0" encoding="UTF-8"?>
<svg id="Layer_2" data-name="Layer 2" xmlns="http://www.w3.org/2000/svg" viewBox="0 0 29.19 29.19">
  <defs>
    <style>
      .cls-1 {
        fill: #0d8376;
      }
    </style>
  </defs>
  <g id="Layer_1-2" data-name="Layer 1">
    <g>
      <path class="cls-1" d="M24.31,29.19H4.88c-2.69,0-4.88-2.19-4.88-4.88V4.88C0,2.19,2.19,0,4.88,0H24.31c2.69,0,4.88,2.19,4.88,4.88V24.31c0,2.69-2.19,4.88-4.88,4.88ZM4.88,1.6c-1.81,0-3.28,1.47-3.28,3.28V24.31c0,1.81,1.47,3.28,3.28,3.28H24.31c1.81,0,3.28-1.47,3.28-3.28V4.88c0-1.81-1.47-3.28-3.28-3.28H4.88Z"/>
      <path class="cls-1" d="M14.6,22.09c-2,0-3.88-.78-5.3-2.19s-2.19-3.3-2.19-5.3,.78-3.88,2.19-5.3,3.3-2.19,5.3-2.19,3.88,.78,5.3,2.19,2.19,3.3,2.19,5.3-.78,3.88-2.19,5.3-3.3,2.19-5.3,2.19Zm0-13.38c-3.25,0-5.89,2.64-5.89,5.89s2.64,5.89,5.89,5.89,5.89-2.64,5.89-5.89-2.64-5.89-5.89-5.89Z"/>
      <path class="cls-1" d="M25.33,4.06c0,.79-.64,1.44-1.44,1.44s-1.44-.64-1.44-1.44,.64-1.44,1.44-1.44,1.44,.64,1.44,1.44Z"/>
    </g>
  </g>
</svg>