<?xml version="1.0" encoding="UTF-8"?>
<svg id="Layer_2" data-name="Layer 2" xmlns="http://www.w3.org/2000/svg" viewBox="0 0 25.72 22.47">
  <defs>
    <style>
      .cls-1 {
        fill: #076652;
      }
    </style>
  </defs>
  <g id="Layer_1-2" data-name="Layer 1">
    <path class="cls-1" d="M0,19.24c2.77,.16,5.19-.5,7.55-2.21-2.39-.41-4.04-1.49-4.94-3.76,.69-.1,1.31,.08,2.03-.2-2.35-1.03-3.87-2.58-3.93-5.25,.74,.07,1.3,.55,2.19,.48C.73,6.19,.08,3.89,1.44,1.1,3.69,3.69,6.33,5.44,9.55,6.27c.17,.05,.35,.09,.52,.13,.83,.19,1.81,.6,2.32,.54,.87-.11,0-1.1,.22-2.4,.69-4.03,5.12-5.86,8.4-3.5,.96,.69,1.72,.68,2.66,.26,.49-.22,.99-.43,1.58-.68-.14,1.16-1.02,1.78-1.72,2.64,.81,.18,1.45-.05,2.19-.28-.25,.83-.87,1.3-1.44,1.75-.58,.47-.82,.96-.84,1.73-.36,11.62-13.56,20.6-22.59,13.45-.87-.69-.02,0-.86-.68Z"/>
  </g>
</svg>